HIERARCHY
ROOT Hips
{
	OFFSET 0.000000 89.005402 0.000000
	CHANNELS 6 Xposition Yposition Zposition Xrotation Yrotation Zrotation
	JOINT Spine
	{
		OFFSET 0.116900 10.681000 0.373400
		CHANNELS 3 Xrotation Yrotation Zrotation
		JOINT Spine1
		{
			OFFSET 0.000000 13.840401 0.053500
			CHANNELS 3 Xrotation Yrotation Zrotation
			JOINT Spine2
			{
				OFFSET 0.000000 14.712700 -0.366200
				CHANNELS 3 Xrotation Yrotation Zrotation
				JOINT Neck
				{
					OFFSET 0.000000 35.415497 -3.314200
					CHANNELS 3 Xrotation Yrotation Zrotation
					JOINT Head
					{
						OFFSET 0.000000 16.899200 1.218300
						CHANNELS 3 Xrotation Yrotation Zrotation
						JOINT HeadTop_End
						{
							OFFSET 0.000000 22.206207 2.192500
							CHANNELS 3 Xrotation Yrotation Zrotation
							End Site
							{
								OFFSET 0.000000 22.314178 0.000000
							}
						}
					}
				}
				JOINT LeftShoulder
				{
					OFFSET 12.896400 26.716293 -4.548400
					CHANNELS 3 Xrotation Yrotation Zrotation
					JOINT LeftArm
					{
						OFFSET 19.027000 -4.857010 -1.718400
						CHANNELS 3 Xrotation Yrotation Zrotation
						JOINT LeftForeArm
						{
							OFFSET 24.179897 0.000000 0.000000
							CHANNELS 3 Xrotation Yrotation Zrotation
							JOINT LeftHand
							{
								OFFSET 27.156403 0.000000 0.000000
								CHANNELS 3 Xrotation Yrotation Zrotation
								JOINT LeftHandIndex1
								{
									OFFSET 16.441200 0.000000 0.000000
									CHANNELS 3 Xrotation Yrotation Zrotation
									JOINT LeftHandIndex2
									{
										OFFSET 4.821899 0.000000 0.000000
										CHANNELS 3 Xrotation Yrotation Zrotation
										JOINT LeftHandIndex3
										{
											OFFSET 6.386497 0.000000 0.000000
											CHANNELS 3 Xrotation Yrotation Zrotation
											JOINT LeftHandIndex4
											{
												OFFSET 5.188988 0.000000 0.000000
												CHANNELS 3 Xrotation Yrotation Zrotation
												End Site
												{
													OFFSET -0.178703 5.185913 0.000177
												}
											}
										}
									}
								}
								JOINT LeftHandThumb1
								{
									OFFSET 6.534897 -5.032593 5.900300
									CHANNELS 3 Xrotation Yrotation Zrotation
									JOINT LeftHandThumb2
									{
										OFFSET 3.818176 -2.204422 2.204423
										CHANNELS 3 Xrotation Yrotation Zrotation
										JOINT LeftHandThumb3
										{
											OFFSET 3.252098 -1.877594 1.877601
											CHANNELS 3 Xrotation Yrotation Zrotation
											JOINT LeftHandThumb4
											{
												OFFSET 5.251778 -3.032120 3.032117
												CHANNELS 3 Xrotation Yrotation Zrotation
												End Site
												{
													OFFSET 0.000023 6.780014 0.000000
												}
											}
										}
									}
								}
							}
						}
					}
				}
				JOINT RightShoulder
				{
					OFFSET -12.896300 26.716293 -4.548400
					CHANNELS 3 Xrotation Yrotation Zrotation
					JOINT RightArm
					{
						OFFSET -19.027000 -4.857010 -1.718400
						CHANNELS 3 Xrotation Yrotation Zrotation
						JOINT RightForeArm
						{
							OFFSET -24.179897 0.000000 0.000000
							CHANNELS 3 Xrotation Yrotation Zrotation
							JOINT RightHand
							{
								OFFSET -27.156403 0.000000 0.000000
								CHANNELS 3 Xrotation Yrotation Zrotation
								JOINT RightHandThumb1
								{
									OFFSET -6.591202 -4.852203 5.988100
									CHANNELS 3 Xrotation Yrotation Zrotation
									JOINT RightHandThumb2
									{
										OFFSET -3.818176 -2.204422 2.204423
										CHANNELS 3 Xrotation Yrotation Zrotation
										JOINT RightHandThumb3
										{
											OFFSET -3.252098 -1.877594 1.877601
											CHANNELS 3 Xrotation Yrotation Zrotation
											JOINT RightHandThumb4
											{
												OFFSET -5.251778 -3.032120 3.032117
												CHANNELS 3 Xrotation Yrotation Zrotation
												End Site
												{
													OFFSET -0.000023 6.780014 0.000000
												}
											}
										}
									}
								}
								JOINT RightHandIndex1
								{
									OFFSET -16.029404 0.000000 0.000000
									CHANNELS 3 Xrotation Yrotation Zrotation
									JOINT RightHandIndex2
									{
										OFFSET -5.213303 0.000000 0.000000
										CHANNELS 3 Xrotation Yrotation Zrotation
										JOINT RightHandIndex3
										{
											OFFSET -6.386528 0.000000 0.000000
											CHANNELS 3 Xrotation Yrotation Zrotation
											JOINT RightHandIndex4
											{
												OFFSET -5.189026 0.000000 0.000000
												CHANNELS 3 Xrotation Yrotation Zrotation
												End Site
												{
													OFFSET 0.236702 5.183624 0.001972
												}
											}
										}
									}
								}
							}
						}
					}
				}
			}
		}
	}
	JOINT LeftUpLeg
	{
		OFFSET 14.073000 -7.904099 -1.463000
		CHANNELS 3 Xrotation Yrotation Zrotation
		JOINT LeftLeg
		{
			OFFSET -0.109806 -34.073280 4.093200
			CHANNELS 3 Xrotation Yrotation Zrotation
			JOINT LeftFoot
			{
				OFFSET 0.109806 -29.899420 -6.319000
				CHANNELS 3 Xrotation Yrotation Zrotation
				JOINT LeftToeBase
				{
					OFFSET 1.551100 -14.988700 20.535801
					CHANNELS 3 Xrotation Yrotation Zrotation
					JOINT LeftToe_End
					{
						OFFSET 0.221200 0.570800 13.248301
						CHANNELS 3 Xrotation Yrotation Zrotation
						End Site
						{
							OFFSET 0.000000 13.262435 0.000000
						}
					}
				}
			}
		}
	}
	JOINT RightUpLeg
	{
		OFFSET -13.839300 -7.904099 -1.463000
		CHANNELS 3 Xrotation Yrotation Zrotation
		JOINT RightLeg
		{
			OFFSET 0.109694 -34.073219 4.093300
			CHANNELS 3 Xrotation Yrotation Zrotation
			JOINT RightFoot
			{
				OFFSET -0.109694 -29.899384 -6.319200
				CHANNELS 3 Xrotation Yrotation Zrotation
				JOINT RightToeBase
				{
					OFFSET -1.551100 -14.988700 20.535801
					CHANNELS 3 Xrotation Yrotation Zrotation
					JOINT RightToe_End
					{
						OFFSET -0.221200 0.570900 13.248299
						CHANNELS 3 Xrotation Yrotation Zrotation
						End Site
						{
							OFFSET 0.000000 13.262440 0.000000
						}
					}
				}
			}
		}
	}
}
MOTION
Frames: 7
Frame Time: 0.033333
-10.683177 76.333794 93.553726 -8.367818 -41.037440 -1.515587 1.219473 -4.971901 0.414518 2.542079 -9.465163 -0.954338 2.547399 -9.468407 -0.915307 10.605446 2.117114 5.624084 5.687983 16.152714 2.543801 0.000000 0.000000 -0.000000 -3.914457 22.394652 10.002780 -69.112444 -23.378855 -98.579499 0.000002 -43.894180 -0.000006 -83.845005 21.510371 -3.512718 0.376621 2.250161 -19.001595 0.376626 2.250157 -19.001598 0.376633 2.250156 -19.001595 0.000002 -0.000001 0.000001 -0.103831 -0.248402 -2.734983 3.939039 7.948717 0.746808 -0.579460 1.574996 2.538718 -0.000001 0.000000 -0.000000 0.384094 -0.330912 3.622210 -56.461714 59.064682 76.508139 0.007996 91.779069 -0.007916 -42.378803 -5.835166 -43.087965 38.020439 -4.605766 16.463637 -0.847560 -24.436443 -11.782702 -9.146205 -3.936241 -10.345732 -0.000002 0.000000 -0.000000 0.042318 0.767585 -6.311584 5.998823 -6.883381 82.127492 3.209516 -5.860759 57.382885 0.000001 -0.000000 -0.000000 2.644868 18.965840 2.533409 64.350900 -6.119163 -8.714052 3.714485 -0.452924 4.739800 -67.076460 -8.164777 2.059882 -0.000000 0.000000 -0.000000 -32.129705 -3.226160 10.637892 50.916246 -11.471920 -4.388994 -14.972844 -8.073449 -7.543189 -0.008564 -0.000003 0.000000 0.000000 -0.000002 0.000000 
-11.783594 76.127586 96.032043 -7.990530 -43.340132 -1.238463 1.180914 -4.652841 -0.013607 2.540498 -9.083046 -1.219823 2.536398 -9.091023 -1.176334 10.372596 2.165625 5.675068 4.977220 16.170659 3.318688 0.000001 -0.000004 -0.000000 -3.992564 22.676402 10.118894 -70.623712 -23.813661 -98.577354 0.000004 -42.248470 -0.000011 -83.552126 21.839016 -4.727150 0.376616 2.250161 -19.001597 0.376625 2.250155 -19.001600 0.376627 2.250151 -19.001602 0.000000 -0.000003 0.000002 -0.103834 -0.248402 -2.734984 3.939044 7.948718 0.746807 -0.579464 1.574995 2.538718 0.000000 0.000000 0.000000 0.373927 -0.787577 3.989780 -58.097541 59.268482 77.096764 -0.002442 91.828123 0.002292 -43.364205 -5.849763 -42.959523 38.020436 -4.605772 16.463638 -0.847561 -24.436443 -11.782707 -9.146200 -3.936241 -10.345731 -0.000000 -0.000000 0.000002 0.042317 0.767584 -6.311585 5.998821 -6.883384 82.127492 3.209514 -5.860759 57.382885 0.000001 -0.000000 -0.000000 -5.526129 18.384537 6.210618 70.387517 -6.656830 -7.690784 5.785178 0.248698 2.026858 -66.097339 -5.643392 1.811435 0.000000 -0.000001 -0.000000 -31.154030 -3.091012 10.148742 53.489216 -11.268024 -4.479419 -18.541819 -6.074926 -6.679094 -0.008406 -0.000017 0.000002 0.000000 0.000000 0.000000 
-12.952197 76.151344 98.551697 -7.644585 -46.107240 -0.751559 1.189242 -4.277155 -0.568709 2.582297 -8.585987 -1.556137 2.566155 -8.599481 -1.515948 10.276949 2.272564 5.599617 4.452057 16.492846 3.697324 -0.000000 0.000000 0.000000 -4.032326 23.081175 9.979449 -71.770788 -23.935397 -98.492783 -0.000011 -41.724820 -0.000001 -83.103000 22.823197 -4.974880 0.376622 2.250161 -19.001595 0.376626 2.250155 -19.001598 0.376629 2.250155 -19.001598 -0.000002 0.000002 0.000003 -0.103832 -0.248401 -2.734984 3.939047 7.948718 0.746807 -0.579464 1.574996 2.538718 0.000000 0.000000 0.000000 0.359724 -1.236866 4.173087 -60.417504 59.484787 78.329040 0.000145 91.941764 -0.000059 -44.688388 -6.222534 -43.599461 38.020436 -4.605772 16.463635 -0.847561 -24.436441 -11.782700 -9.146202 -3.936242 -10.345729 -0.000001 -0.000001 -0.000002 0.042318 0.767584 -6.311585 5.998820 -6.883385 82.127492 3.209513 -5.860760 57.382885 -0.000000 0.000002 0.000000 -12.514646 17.159967 8.204583 75.606636 -5.282564 -6.626352 1.261115 -0.030782 4.640851 -57.310738 2.213276 -1.573452 -0.000000 0.000001 -0.000000 -29.691758 -2.652246 9.348135 55.253826 -10.969075 -4.705916 -21.827019 -3.847522 -5.675167 -0.007261 0.000000 -0.000001 0.000000 0.000000 0.000000 
-14.180126 76.251312 101.040726 -7.687801 -49.281690 -0.429506 1.245310 -3.878791 -1.118810 2.670181 -7.963119 -1.968879 2.642898 -7.981667 -1.936539 10.370142 2.395565 5.487163 4.252448 16.971384 3.758864 -0.000000 0.000003 -0.000002 -4.043048 23.420683 9.776376 -71.986314 -23.831204 -98.136902 -0.000012 -43.021118 -0.000003 -82.118818 24.468417 -4.000388 0.376623 2.250161 -19.001590 0.376629 2.250157 -19.001600 0.376632 2.250152 -19.001603 0.000003 -0.000004 -0.000001 -0.103828 -0.248402 -2.734983 3.939045 7.948718 0.746807 -0.579466 1.574996 2.538717 0.000004 -0.000000 -0.000000 0.352726 -1.460568 4.263650 -62.218372 59.571817 79.526310 0.002274 92.351507 -0.002286 -45.857873 -7.220267 -45.865280 38.020436 -4.605767 16.463633 -0.847566 -24.436443 -11.782703 -9.146203 -3.936241 -10.345729 -0.000003 0.000000 0.000001 0.042317 0.767587 -6.311583 5.998822 -6.883378 82.127492 3.209515 -5.860758 57.382885 0.000000 -0.000000 -0.000000 -18.297583 15.290316 9.642965 77.543636 -3.137801 -5.620152 -3.171973 -0.427536 6.676354 -47.661695 6.886770 -6.410387 -0.000000 0.000002 -0.000000 -27.833984 -1.933661 8.496870 56.509755 -10.665867 -5.355813 -24.805485 -1.430480 -4.354235 -0.004922 0.000000 -0.000001 -0.000000 0.000000 0.000000 
-15.745575 76.519073 103.962280 -8.755568 -52.982734 -1.210593 1.369538 -3.435619 -1.743165 2.859768 -7.222079 -2.424427 2.822473 -7.246016 -2.402620 10.612442 2.530487 5.571910 5.017969 17.955772 3.263297 0.000001 0.000003 0.000000 -4.065866 23.343891 9.904303 -70.508377 -23.146147 -97.230004 0.000008 -46.199762 0.000017 -82.475989 25.341960 -1.239852 0.376622 2.250161 -19.001595 0.376629 2.250156 -19.001600 0.376633 2.250154 -19.001602 0.000001 0.000001 0.000001 -0.103829 -0.248402 -2.734984 3.939045 7.948717 0.746808 -0.579463 1.574996 2.538718 0.000005 -0.000000 -0.000000 0.379859 -1.392133 4.834915 -62.412868 60.158380 80.059386 -0.001912 92.590516 0.002005 -45.872633 -8.205117 -47.508579 38.020436 -4.605771 16.463638 -0.847565 -24.436443 -11.782707 -9.146209 -3.936243 -10.345729 -0.000000 -0.000001 -0.000001 0.042316 0.767583 -6.311580 5.998824 -6.883387 82.127492 3.209514 -5.860757 57.382878 0.000002 0.000001 0.000001 -23.344110 12.913393 10.975560 78.113520 -1.092770 -4.497573 -10.279379 -0.709933 6.411333 -30.523654 6.404435 -10.780444 -0.000000 -0.000001 0.000000 -24.468697 -1.398880 7.565704 56.974067 -9.628926 -6.432060 -27.968197 1.182846 -2.898674 -0.103750 0.000019 0.000000 -0.000000 -0.000002 -0.000000 
-17.247108 76.945656 106.583382 -10.692260 -55.948023 -3.155582 1.518832 -3.088050 -2.331462 3.109187 -6.659235 -2.736349 3.064489 -6.688309 -2.722746 10.845669 2.647342 5.876927 6.513627 19.264863 2.378812 0.000001 -0.000001 -0.000000 -4.094392 22.860821 10.347137 -68.194972 -22.017376 -96.226198 0.000055 -49.199652 0.000052 -84.978379 24.202321 2.021636 0.376624 2.250162 -19.001597 0.376625 2.250153 -19.001603 0.376634 2.250150 -19.001600 0.000001 -0.000002 -0.000001 -0.103835 -0.248402 -2.734984 3.939041 7.948717 0.746808 -0.579463 1.574996 2.538717 -0.000001 -0.000001 -0.000000 0.428011 -1.245570 5.779580 -61.417327 61.284309 79.987649 0.002087 92.174612 -0.002123 -44.598161 -8.127530 -46.112796 38.020436 -4.605767 16.463635 -0.847568 -24.436443 -11.782708 -9.146204 -3.936243 -10.345729 0.000001 0.000000 -0.000001 0.042318 0.767584 -6.311584 5.998823 -6.883383 82.127492 3.209511 -5.860759 57.382885 -0.000001 -0.000002 0.000000 -26.565567 11.485689 11.322639 75.332800 -0.418141 -3.581603 -13.135097 -0.936345 6.397765 -19.240098 4.273677 -11.993549 -0.000000 -0.000001 0.000000 -20.552978 -1.534697 6.841287 56.573825 -5.571385 -7.385970 -30.103051 1.339501 -3.333163 -0.313803 0.000024 -0.000002 -0.000000 0.000002 0.000000 
-18.245752 77.342178 108.230347 -12.594826 -57.461671 -5.222775 1.641086 -2.894085 -2.762784 3.336821 -6.384191 -2.865466 3.286856 -6.417501 -2.855700 11.002025 2.713644 6.213527 7.888215 20.324423 1.581623 0.000001 0.000001 0.000000 -4.093065 22.291349 10.766055 -66.442181 -20.964581 -95.660016 -0.000016 -50.490326 -0.000009 -88.059942 21.974455 4.013545 0.376622 2.250161 -19.001593 0.376624 2.250154 -19.001605 0.376630 2.250152 -19.001603 -0.000000 -0.000002 -0.000002 -0.103834 -0.248401 -2.734983 3.939039 7.948715 0.746807 -0.579463 1.574996 2.538717 -0.000001 0.000001 -0.000001 0.472556 -1.206787 6.732581 -60.313487 62.459041 79.644514 0.004942 91.457859 -0.004860 -43.425076 -7.290177 -43.099153 38.020439 -4.605769 16.463635 -0.847558 -24.436445 -11.782708 -9.146206 -3.936240 -10.345729 -0.000002 -0.000001 -0.000001 0.042316 0.767586 -6.311581 5.998821 -6.883381 82.127492 3.209514 -5.860759 57.382885 -0.000000 -0.000002 0.000000 -27.970280 11.026579 11.168018 72.428555 -0.833657 -3.071167 -13.131898 -0.978480 6.348154 -14.723117 3.014478 -11.264136 -0.000000 -0.000000 -0.000000 -17.443308 -2.008197 6.208994 55.760309 -2.435666 -7.752816 -31.118977 1.507762 -4.003496 -0.554609 0.000007 -0.000002 -0.000000 -0.000002 0.000000 
